M48
;DRILL file {Pcbnew (2012-apr-16-27)-stable} date So 29 Sep 2013 22:14:50 CEST
;FORMAT={-:-/ absolute / inch / decimal}
FMAT,2
INCH,TZ
T1C0.032
T2C0.032
T3C0.040
T4C0.045
T5C0.120
%
G90
G05
M72
T1
X1.300Y2.600
X1.300Y3.100
X1.400Y2.700
X1.400Y3.200
X1.500Y2.800
X1.500Y3.300
X1.550Y2.200
X1.550Y2.600
X1.600Y2.900
X1.600Y3.400
X2.100Y2.100
X2.100Y2.400
X2.100Y2.500
X2.100Y3.700
X2.200Y2.200
X2.200Y2.500
X2.300Y2.100
X2.300Y2.500
X2.400Y2.000
X2.400Y2.500
X2.500Y1.900
X2.500Y2.500
X2.600Y1.800
X2.600Y2.500
X2.700Y1.500
X2.700Y2.900
X2.800Y1.600
X2.800Y2.800
X2.900Y1.700
X2.900Y2.700
T2
X1.100Y2.400
X1.100Y2.500
X1.200Y2.250
X1.300Y2.250
X1.300Y2.400
X1.300Y2.500
X1.600Y3.600
X1.600Y3.700
X1.700Y1.700
X1.700Y1.800
X1.700Y1.900
X1.700Y2.000
X1.700Y2.100
X1.700Y2.200
X1.700Y2.300
X1.700Y2.400
X1.700Y2.500
X1.700Y2.600
X1.700Y2.700
X1.700Y2.800
X1.700Y2.900
X1.700Y3.000
X2.000Y1.700
X2.000Y1.800
X2.000Y1.900
X2.000Y2.000
X2.000Y2.100
X2.000Y2.200
X2.000Y2.300
X2.000Y2.400
X2.000Y2.500
X2.000Y2.600
X2.000Y2.700
X2.000Y2.800
X2.000Y2.900
X2.000Y3.000
X2.750Y3.500
X2.850Y3.500
X3.000Y1.700
X3.000Y1.800
X3.000Y1.900
X3.000Y2.000
X3.000Y2.100
X3.000Y2.200
X3.000Y2.300
X3.000Y2.400
X3.000Y2.500
X3.000Y2.700
X3.000Y2.800
X3.000Y2.900
X3.000Y3.000
X3.000Y3.100
X3.000Y3.200
X3.000Y3.300
X3.000Y3.400
X3.000Y3.500
X3.300Y1.700
X3.300Y1.800
X3.300Y1.900
X3.300Y2.000
X3.300Y2.100
X3.300Y2.200
X3.300Y2.300
X3.300Y2.400
X3.300Y2.500
X3.300Y2.700
X3.300Y2.800
X3.300Y2.900
X3.300Y3.000
X3.300Y3.100
X3.300Y3.200
X3.300Y3.300
X3.300Y3.400
X3.300Y3.500
X3.400Y1.800
X3.400Y1.900
X3.400Y2.000
X3.400Y2.100
X3.400Y2.200
X3.400Y2.300
X3.400Y2.400
X3.400Y2.500
X3.400Y2.600
X3.400Y2.700
X3.400Y2.800
X3.400Y2.900
X3.400Y3.000
X3.400Y3.100
X3.400Y3.200
X3.400Y3.300
X3.800Y1.800
X3.800Y1.900
X3.800Y2.000
X3.800Y2.100
X3.800Y2.200
X3.800Y2.300
X3.800Y2.400
X3.800Y2.500
X3.800Y2.600
X3.800Y2.700
X3.800Y2.800
X3.800Y2.900
X3.800Y3.000
X3.800Y3.100
X3.800Y3.200
X3.800Y3.300
X3.900Y1.800
X3.900Y1.900
X3.900Y2.000
X3.900Y2.100
X3.900Y2.200
X3.900Y2.300
X3.900Y2.400
X3.900Y2.500
X3.900Y2.600
X3.900Y2.700
X3.900Y2.800
X3.900Y2.900
X3.900Y3.000
X3.900Y3.100
X3.900Y3.200
X3.900Y3.300
X4.000Y1.800
X4.000Y1.900
X4.000Y2.000
X4.000Y2.100
X4.000Y2.200
X4.000Y2.300
X4.000Y2.400
X4.000Y2.500
X4.000Y2.600
X4.000Y2.700
X4.000Y2.800
X4.000Y2.900
X4.000Y3.000
X4.000Y3.100
X4.000Y3.200
X4.000Y3.300
T3
X1.100Y3.700
X1.150Y1.600
X1.150Y1.950
X1.200Y3.700
X1.350Y1.600
X1.350Y1.950
T4
X1.100Y3.500
X1.600Y3.500
X1.900Y3.500
X1.900Y3.600
X1.900Y3.700
T5
X3.900Y1.550
X3.900Y3.650
T0
M30
